<svg width="21" height="24" viewBox="0 0 21 24" fill="none" xmlns="http://www.w3.org/2000/svg">
<path d="M11.0065 4.6833C10.7738 4.79729 10.5 4.63151 10.5 4.37665V2.05758C10.5 1.80272 10.2262 1.63694 9.99348 1.75093L0.193475 6.55093C0.0749005 6.60899 0 6.72773 0 6.85758V19.8053C0 20.06 0.27381 20.2258 0.506525 20.1118L9.99348 15.4652C10.2262 15.3512 10.5 15.517 10.5 15.7719V18.091C10.5 18.3457 10.7738 18.5115 11.0065 18.3975L20.8064 13.5976C20.9251 13.5395 21 13.4208 21 13.2909V0.3433C21 0.0884258 20.7261 -0.0773443 20.4935 0.0366387L11.0065 4.6833Z" fill="white"/>
<path d="M9.02071 20.5315C9.02071 20.7862 9.29429 20.952 9.52698 20.8382L13.4934 18.8993C13.7261 18.7857 13.9997 18.9514 13.9997 19.2062V20.1542C13.9997 20.2841 13.9248 20.4029 13.8062 20.4609L7.94915 23.3295C7.71643 23.4435 7.44263 23.2778 7.44263 23.0229V18.6425C7.44263 18.5129 7.51725 18.3943 7.63548 18.3362L8.51358 17.904C8.74634 17.7893 9.02072 17.9551 9.02072 18.2103L9.02071 20.5315Z" fill="white"/>
</svg>
